<svg xmlns="http://www.w3.org/2000/svg" xmlns:xlink="http://www.w3.org/1999/xlink" height="50" viewBox="0 0 185 117">
    <defs>
        <path id="a" d="M0 .008h82.512v86.649H0z" />
        <path id="c" d="M.854.88h116.301V102H.855z" />
    </defs>
    <g fill="none" fill-rule="evenodd">
        <g transform="translate(0 -.008)">
            <mask id="b" fill="#fff">
                <use xlink:href="#a" />
            </mask>
            <path fill="#434A54"
                d="M60.394 43.169a2.556 2.556 0 0 1 1.706 3.193 2.551 2.551 0 0 1-3.18 1.698l-13.175-3.796a2.551 2.551 0 0 1-1.695-3.19 2.55 2.55 0 0 1 3.18-1.698l13.164 3.793zM52.52 24.827a2.554 2.554 0 1 1-1.493 4.886l-34.59-10.576a2.553 2.553 0 1 1 1.494-4.885l34.59 10.575zM15.773 34.862l-.94-.29C3.723 31.188-2.426 19.623.903 8.736l2.115-6.92A2.553 2.553 0 0 1 6.208.12l74.495 22.776a2.554 2.554 0 1 1-1.494 4.886L7.157 5.752l-1.369 4.476c-2.488 8.14 2.065 16.796 10.108 19.34.047.01 7.033 2.143 20.96 6.399a2.554 2.554 0 1 1-1.495 4.885l-14.652-4.48c-.99 7.44 3.553 14.657 10.858 16.89L47.1 58.01a2.554 2.554 0 0 1 1.696 3.19 2.557 2.557 0 0 1-3.19 1.697l-9.43-2.883c-.99 7.439 3.554 14.657 10.858 16.89l15.55 4.754a2.556 2.556 0 0 1-1.493 4.886L45.54 81.79c-9.997-3.056-16.083-13.12-14.3-23.284l-1.167-.357c-9.997-3.056-16.082-13.12-14.3-23.287z"
                mask="url(#b)" />
        </g>
        <path d="M114.128 24.482l47.734 14.917v23.36l-15.793 5.14V45.699L96.377 29.857z" />
        <g transform="translate(67 14.992)">
            <mask id="d" fill="#fff">
                <use xlink:href="#c" />
            </mask>
            <path fill="#434A54"
                d="M112.098 79.923l-50.565 16.09V86.83a2.528 2.528 0 0 0-5.057 0v9.183L5.911 79.926V22.943l16.856-5.362 47.278 15.046-11.04 3.511-42.223-13.43a2.528 2.528 0 0 0-1.532 4.82L56.476 40.64v36.076a2.528 2.528 0 0 0 5.057 0V40.641l14.327-4.55v16.772a2.528 2.528 0 0 0 3.287 2.41l5.898-1.882a2.528 2.528 0 1 0-1.532-4.819l-2.604.83V34.485l13.061-4.157v14.917l-2.872.913a2.528 2.528 0 0 0 .76 4.938c.256 0 .512-.04.757-.119l4.637-1.474a2.529 2.529 0 0 0 1.77-2.41V28.71l13.076-4.156v55.37zm-71.21-68.107L88.164 26.86l-9.776 3.112L31.11 14.93l9.777-3.113zm18.116-5.764l47.28 15.043-9.78 3.112L49.227 9.162l9.777-3.11zm58.042 14.366v-.089a2.488 2.488 0 0 0-.445-.796c-.058-.074-.127-.127-.19-.192a2.524 2.524 0 0 0-.488-.385 2.777 2.777 0 0 0-.288-.146 2.533 2.533 0 0 0-.227-.114L59.786.998a2.538 2.538 0 0 0-1.533 0L2.631 18.696a2.528 2.528 0 0 0-1.777 2.4v60.678a2.527 2.527 0 0 0 1.77 2.41l55.622 17.697a2.535 2.535 0 0 0 1.532 0L115.4 84.183a2.53 2.53 0 0 0 1.755-2.409V21.095a2.547 2.547 0 0 0-.109-.677z"
                mask="url(#d)" />
        </g>
        <path fill="#434A54"
            d="M81.09 78.871a2.345 2.345 0 0 0-2.344 2.345V98.25a2.344 2.344 0 1 0 4.69 0V81.216a2.345 2.345 0 0 0-2.345-2.345M81.09 71.871c-.616 0-1.221.251-1.657.687a2.362 2.362 0 0 0-.687 1.66c0 .613.25 1.218.687 1.656a2.36 2.36 0 0 0 1.657.684 2.36 2.36 0 0 0 1.657-.684 2.366 2.366 0 0 0 .687-1.657c0-.619-.251-1.223-.687-1.659a2.362 2.362 0 0 0-1.657-.687" />
    </g>
</svg>