<svg xmlns="http://www.w3.org/2000/svg" height="50" viewBox="0 0 135 120">
    <g fill="none" fill-rule="evenodd">
        <path fill="#434A54"
            d="M73.69 85.755a1.407 1.407 0 0 1 0-2.813 1.408 1.408 0 0 1 0 2.814m0-7.5a6.101 6.101 0 0 0-6.093 6.094 6.1 6.1 0 0 0 6.094 6.093 6.1 6.1 0 0 0 6.094-6.093 6.101 6.101 0 0 0-6.094-6.094M92.503 70.488a2.362 2.362 0 0 0-1.657-.687c-.616 0-1.221.251-1.657.687a2.352 2.352 0 0 0-.687 1.657c0 .616.249 1.221.687 1.657a2.362 2.362 0 0 0 1.657.687c.616 0 1.22-.25 1.657-.687a2.362 2.362 0 0 0 .687-1.657 2.36 2.36 0 0 0-.687-1.657M39.83 44.519l9.926-9.925 15.308-15.307-10.548-2.826a9.497 9.497 0 0 1-3.567 3.61 9.5 9.5 0 0 1-4.911 1.284L39.83 44.519zm37.722-31.091L42.308 48.67h4.288l31.97-31.97a2.344 2.344 0 0 1 3.314 0 4.872 4.872 0 0 0 6.882 0 2.345 2.345 0 0 1 3.315 0l12.85 12.85a2.343 2.343 0 0 1 0 3.316 4.871 4.871 0 0 0 0 6.88 2.342 2.342 0 0 1 0 3.315l-5.608 5.609h4.288l12.364-12.364L85.32 5.659l-7.768 7.769h-.001zm-6.898 26.437c5.35 0 9.834 3.778 10.927 8.806H92.69l7.47-7.471a9.586 9.586 0 0 1 0-9.785l-9.946-9.947a9.586 9.586 0 0 1-9.785 0L53.225 48.67h6.503c1.093-5.028 5.576-8.806 10.926-8.806zm6.044 8.806a6.505 6.505 0 0 0-6.043-4.118 6.504 6.504 0 0 0-6.043 4.118h12.086zm-42.851.068l8.195-30.583a2.344 2.344 0 0 1 2.87-1.657 4.837 4.837 0 0 0 3.694-.486 4.84 4.84 0 0 0 2.267-2.955 2.343 2.343 0 0 1 2.87-1.657L68.89 15.46l2.476-2.476-28.996-7.77-11.664 43.528-4.857.005c0-.044 4.2-15.714 12.6-47.01A2.343 2.343 0 0 1 41.32.082l33.874 9.076 8.47-8.47a2.342 2.342 0 0 1 3.314 0l33.06 33.06c1.516 1.669 1.662 3.23.437 4.684l-10.32 10.316-6.555-.072-69.753.064z" />
        <path fill="#434A54"
            d="M129.563 87.616A6.57 6.57 0 0 1 123 94.178H73.78c-5.427 0-9.843-4.415-9.843-9.843s4.416-9.844 9.844-9.844h7.103a2.344 2.344 0 0 0 0-4.687h-7.103c-8.013 0-14.532 6.518-14.532 14.53 0 8.013 6.519 14.53 14.532 14.53h43.125v9.418c0 3.84-3.096 6.972-6.923 7.03l-84.484-.017c-3.66-.242-6.562-3.294-6.562-7.013V51.97a9.776 9.776 0 0 0 5.156 1.463h85.78a7.039 7.039 0 0 1 7.032 7.03v9.34H99.96a2.343 2.343 0 1 0 0 4.687h24.048a10.17 10.17 0 0 0 5.555-1.644v14.769zm0 20.663a7.039 7.039 0 0 1-7.031 7.03h-3.286a11.65 11.65 0 0 0 2.348-7.027v-9.416H123c2.447 0 4.713-.79 6.562-2.121v11.534zM110.12 48.747l-6.556-.072-69.752.064-.002.008h-3.14l.002-.005-4.854.005h-1.725a5.161 5.161 0 0 1-5.156-5.156 5.163 5.163 0 0 1 5.156-5.157h4.477l1.256-4.687h-5.733c-5.428 0-9.844 4.416-9.844 9.844 0 .13.005.259.01.388-.005.064-.01.129-.01.195v64.108c0 6.46 5.257 11.718 11.719 11.718h83.906c.037 0 .072-.002.109-.003h12.548c6.46 0 11.718-5.256 11.718-11.718V45.465c0-6.461-5.257-11.718-11.718-11.718h-2.527c1.515 1.668 1.66 3.229.436 4.683h1.309v.004h.782c3.877 0 7.03 3.155 7.03 7.03V64.25a5.561 5.561 0 0 1-5.554 5.555h-2.414v-9.34c0-6.38-5.125-11.581-11.475-11.711l.002-.006z" />
        <path fill="#FFF" d="M13.25 53h8v59l-6.96 3.002z" />
        <path d="M27.25 58c13.807 0 25 11.193 25 25s-11.193 25-25 25-25-11.193-25-25 11.193-25 25-25" />
        <path fill="#434A54"
            d="M30.6 78.511l-.35-.876-3.273-8.17-3.622 9.046-.942.063-8.78.587 7.483 6.24-.23.915-2.156 8.533 8.248-5.189.798.503 7.45 4.686-2.386-9.447.724-.605 6.76-5.636-9.723-.65zm12.597 2.16l-6.986 5.826 2.224 8.811c.28 1.075-.052 2.15-.879 2.75-.826.6-1.95.583-2.877-.009l-7.7-4.845-7.694 4.84c-.936.597-2.06.613-2.886.013-.827-.6-1.159-1.674-.882-2.74l2.229-8.82-6.98-5.82c-.857-.706-1.22-1.77-.905-2.74.316-.973 1.234-1.62 2.333-1.687l9.077-.606 3.38-8.437c.405-1.034 1.305-1.707 2.326-1.707 1.023 0 1.922.673 2.325 1.698l3.382 8.446 9.068.606c1.108.067 2.026.714 2.342 1.685.316.972-.047 2.036-.897 2.736zM34.594 57c-.62 0-1.221.251-1.66.687a2.359 2.359 0 0 0-.684 1.657c0 .619.249 1.221.685 1.657a2.36 2.36 0 0 0 1.659.686c.616 0 1.219-.248 1.657-.686a2.362 2.362 0 0 0 .687-1.657c0-.617-.251-1.219-.687-1.657A2.362 2.362 0 0 0 34.594 57" />
        <path fill="#434A54"
            d="M27.25 110.25a2.25 2.25 0 1 0 0-4.5C14.686 105.75 4.5 95.564 4.5 83s10.186-22.75 22.75-22.75a2.25 2.25 0 1 0 0-4.5C12.2 55.75 0 67.95 0 83s12.2 27.25 27.25 27.25M16.594 51c-.616 0-1.221.251-1.657.687a2.364 2.364 0 0 0-.687 1.66c0 .615.25 1.22.687 1.658a2.36 2.36 0 0 0 1.657.685 2.36 2.36 0 0 0 1.657-.685 2.366 2.366 0 0 0 .687-1.658c0-.619-.251-1.224-.687-1.66A2.362 2.362 0 0 0 16.594 51M18.094 111c-.616 0-1.221.251-1.657.687a2.364 2.364 0 0 0-.687 1.66c0 .615.25 1.22.687 1.658a2.36 2.36 0 0 0 1.657.685 2.36 2.36 0 0 0 1.657-.685 2.366 2.366 0 0 0 .687-1.658c0-.619-.251-1.224-.687-1.66a2.362 2.362 0 0 0-1.657-.687" />
    </g>
</svg>